# xmcd
#
# Track frame offsets:
#	150
#	17575
#	34648
#
# Disc length: 707 seconds
#
# Revision: 8
# Processed by: cddbd v1.5.2PL0 Copyright (c) Steve Scherf et al.
# Submitted via: EasyCDDAExtractor 11.1.0.1
#
DISCID=1602c103
DTITLE=Charlie Landsborough - Promo
DYEAR=1995
DGENRE=Country
TTITLE0=What colour is the wind
TTITLE1=I still can't say goodbye
TTITLE2=My forever friend
EXTD=YEAR: 1995
EXTT0=
EXTT1=
EXTT2=
PLAYORDER=
